<?xml version="1.0" standalone="no"?>
<!DOCTYPE svg PUBLIC "-//W3C//DTD SVG 20010904//EN"
 "http://www.w3.org/TR/2001/REC-SVG-20010904/DTD/svg10.dtd">
<svg version="1.0" xmlns="http://www.w3.org/2000/svg"
 width="24" height="24" viewBox="0 0 512.000000 512.000000"
 preserveAspectRatio="xMidYMid meet">

<g transform="translate(0.000000,512.000000) scale(0.100000,-0.100000)"
fill="white" stroke="white">
<path d="M2306 4780 c-402 -63 -725 -329 -854 -700 -44 -129 -57 -210 -57
-365 1 -159 16 -246 68 -385 55 -146 118 -241 242 -365 124 -124 219 -187 365
-242 148 -55 225 -68 400 -67 133 1 169 5 251 27 197 52 363 151 507 301 138
145 218 289 274 496 28 101 30 359 5 468 -50 216 -136 371 -292 527 -157 157
-318 246 -527 291 -88 19 -300 26 -382 14z"/>
<path d="M1775 2424 c-466 -83 -895 -402 -1104 -822 -107 -214 -171 -484 -173
-727 -1 -103 2 -128 22 -180 59 -153 258 -266 534 -304 159 -22 515 -32 1006
-29 438 4 513 6 563 21 147 43 205 85 214 157 11 83 -38 134 -157 165 -119 31
-169 68 -200 152 -41 109 -19 202 74 316 61 75 86 117 86 145 0 33 -43 113
-90 167 -22 26 -47 59 -55 75 -30 59 -9 217 40 291 33 50 90 75 220 94 60 8
123 23 140 33 44 26 65 75 65 154 0 37 5 79 11 95 26 69 122 134 233 158 41 9
51 14 31 14 -16 1 -262 10 -545 21 -600 23 -804 24 -915 4z"/>
<path d="M3229 2259 c-52 -8 -84 -22 -116 -52 -21 -18 -23 -30 -23 -108 0
-153 -24 -219 -93 -257 -26 -13 -58 -17 -159 -17 -113 0 -129 -2 -155 -21 -61
-46 -96 -172 -64 -233 7 -12 42 -46 79 -77 84 -69 112 -113 112 -177 0 -88
-33 -141 -131 -208 -57 -38 -79 -74 -79 -126 0 -51 23 -113 57 -152 l34 -41
122 3 c110 2 126 0 164 -20 49 -27 93 -94 93 -142 0 -18 -8 -62 -17 -97 -16
-59 -16 -68 -2 -92 29 -52 210 -124 272 -108 15 3 50 36 84 78 70 87 104 108
182 115 80 8 138 -20 180 -85 17 -26 42 -60 57 -76 25 -26 31 -28 77 -23 58 7
193 71 208 99 8 15 6 39 -6 90 -30 122 -11 184 73 241 52 35 114 45 217 36 68
-6 84 -5 105 10 43 31 92 200 70 241 -6 10 -34 32 -64 50 -102 58 -133 114
-124 224 6 68 31 103 116 159 78 52 122 98 122 131 0 38 -40 143 -65 170 -28
30 -60 33 -150 11 -114 -28 -193 -11 -247 53 -31 37 -53 128 -43 178 11 61 -5
126 -40 161 -33 33 -107 59 -180 65 -39 3 -40 2 -90 -71 -68 -101 -89 -115
-180 -119 -101 -5 -150 18 -210 100 -24 33 -52 66 -62 73 -26 18 -71 23 -124
14z m477 -480 c189 -34 327 -183 356 -385 35 -244 -120 -477 -357 -539 -244
-63 -484 86 -560 349 -13 44 -16 85 -13 160 3 89 8 109 36 169 91 187 310 288
538 246z"/>
</g>
</svg>
